<?xml version="1.0" encoding="UTF-8"?>
<svg width="210px" height="52px" viewBox="0 0 210 52" version="1.1" xmlns="http://www.w3.org/2000/svg" xmlns:xlink="http://www.w3.org/1999/xlink">
    <!-- Generator: Sketch 49.3 (51167) - http://www.bohemiancoding.com/sketch -->
    <title>logo-horizontal-blue - 850x207 - Copy</title>
    <desc>Created with Sketch.</desc>
    <defs></defs>
    <g id="Page-1" stroke="none" stroke-width="1" fill="none" fill-rule="evenodd">
        <g id="Home_v3" transform="translate(-81.000000, -81.000000)" fill="#FFFFFF" fill-rule="nonzero">
            <g id="nav" transform="translate(81.000000, 81.000000)">
                <g id="logo-horizontal-blue---850x207---Copy">
                    <g id="_FMClarity_copy_2_1_" transform="translate(102.214286, 18.928571)">
                        <g id="_FMClarity_copy_2">
                            <path d="M13.3143571,21.5520714 C7.208,21.5520714 4.84192857,17.278 4.81164286,13.1856429 C4.77,9.05164286 7.34807143,4.60342857 13.3143571,4.60342857 C15.4684286,4.60342857 17.6527857,5.34164286 19.2768571,6.93164286 L22.3773571,3.92957143 C19.8371429,1.42342857 16.6609286,0.151428571 13.3105714,0.151428571 C4.38385714,0.151428571 0.174142857,6.71585714 0.215785714,13.1742857 C0.249857143,19.5948571 4.13021429,25.9132143 13.3105714,25.9132143 C16.8691429,25.9132143 20.1589286,24.7434286 22.6953571,22.2372857 L19.5229286,19.027 C17.9026429,20.6624286 15.4684286,21.5520714 13.3143571,21.5520714 Z M23.7250714,25.3567143 L27.9991429,25.3567143 L27.9991429,0.689 L23.7250714,0.689 L23.7250714,25.3567143 Z M45.2544286,10.3615 C44.2625714,8.62764286 42.0365714,7.53357143 39.7159286,7.53357143 C34.6279286,7.4995 30.6453571,10.6416429 30.6453571,16.642 C30.6453571,22.7407857 34.4613571,25.9207857 39.6061429,25.8829286 C41.552,25.8450714 44.2625714,24.857 45.2544286,22.8051429 L45.4702143,25.3491429 L49.5285,25.3491429 L49.5285,7.96135714 L45.3982857,7.96135714 L45.2544286,10.3615 Z M40.0982857,21.9344286 C37.2362857,21.9344286 34.9497143,19.9620714 34.9497143,16.6457857 C34.9497143,13.3295 37.2438571,11.3836429 40.0982857,11.3836429 C46.8747143,11.3798571 46.8747143,21.9344286 40.0982857,21.9344286 Z M57.2892143,9.97157143 L56.9674286,7.96135714 L52.9772857,7.96135714 L52.9772857,25.3605 L57.2892143,25.3605 L57.2892143,16.1839286 C57.2892143,12.9698571 59.3637857,11.766 61.6276429,11.766 C63.0397143,11.766 63.8536429,12.1597143 64.7395,12.8979286 L66.6777857,9.16142857 C65.7237857,8.20742857 63.9937143,7.50328571 62.1955,7.50328571 C60.4275714,7.50328571 58.6217857,7.8175 57.2892143,9.97157143 Z M68.1163571,25.3567143 L72.4207143,25.3567143 L72.4207143,7.88942857 L68.1163571,7.88942857 L68.1163571,25.3567143 Z M84.4252143,21.6883571 C83.0850714,21.6883571 82.1651429,20.882 82.1651429,19.2200714 L82.1651429,11.7016429 L86.9995,11.7016429 L86.9995,7.99164286 L82.1954286,7.99164286 L82.1954286,3.05507143 L77.8872857,3.51692857 L77.8872857,7.99921429 L74.6429286,7.99921429 L74.6429286,11.7054286 L77.8872857,11.7054286 L77.8872857,19.2162857 C77.8872857,23.5585 80.3555714,25.7125714 84.1261429,25.5725 C85.436,25.5308571 86.4581429,25.334 87.6922857,24.8342857 L86.4997857,21.1545714 C85.8789286,21.4763571 85.0952857,21.6883571 84.4252143,21.6883571 Z M102.808643,7.96135714 L99.6362143,15.5857857 L97.838,20.3898571 L96.1760714,15.4835714 L93.5298571,7.96892857 L88.5213571,7.96892857 L95.4757143,25.0841429 L92.2313571,32.6328571 L96.9559286,32.6328571 L107.582429,7.96514286 L102.808643,7.96135714 Z M68.1163571,6.63257143 L72.4207143,6.63257143 L72.4207143,2.98314286 L68.1163571,2.98314286 L68.1163571,6.63257143 Z" id="Shape"></path>
                        </g>
                    </g>
                    <g id="_FMClarity_copy_1_" transform="translate(54.000000, 18.928571)">
                        <g id="_FMClarity_copy">
                            <path d="M0.790642857,25.3567143 L5.44707143,25.3567143 L5.44707143,16.2255714 L17.8339286,16.2255714 L17.8339286,11.9136429 L5.44707143,11.9136429 L5.44707143,5.17128571 L18.5418571,5.17128571 L18.5418571,0.689 L0.790642857,0.689 L0.790642857,25.3567143 Z M41.0252143,0.689 L33.2947857,11.3155 L25.5643571,0.689 L20.2,0.689 L20.2,25.3832143 L24.8602143,25.3832143 L24.8602143,7.42757143 L32.7307143,18.1979286 L33.6506429,18.1979286 L41.6990714,7.46921429 L41.6990714,25.387 L46.3592857,25.387 L46.3592857,0.689 L41.0252143,0.689 Z" id="Shape"></path>
                        </g>
                    </g>
                    <g id="Shape_123_copy_23_1_" transform="translate(26.500000, 9.571429)">
                        <g id="Shape_123_copy_23" transform="translate(0.000000, -0.000000)">
                            <path d="M0.268785714,26.9228571 L20.9009286,36.1145714 L20.9009286,28.7248571 L0.268785714,19.7451429 L0.268785714,26.9228571 Z M0.268785714,17.3790714 L20.9009286,26.5632143 L20.9009286,19.1810714 L0.268785714,10.2013571 L0.268785714,17.3790714 Z M0.268785714,42.0695 L20.9009286,42.0884286 L20.9009286,38.2345714 L0.268785714,29.2548571 L0.268785714,42.0695 Z M0.268785714,7.48321429 L20.9009286,16.6749286 L20.9009286,9.27764286 L0.268785714,0.3055 L0.268785714,7.48321429 Z" id="Shape"></path>
                        </g>
                    </g>
                    <g id="Shape_123_copy_28_2_" transform="translate(7.571429, 0.000000)">
                        <path d="M3.53207143,45.686 L17.3499286,36.4942857 L17.3499286,29.3165714 L3.52828571,38.2962857 L3.53207143,45.686 Z M3.53207143,36.1346429 L17.3537143,26.9467143 L17.3537143,19.769 L3.53207143,28.7487143 L3.53207143,36.1346429 Z M3.53207143,51.6598571 L17.3537143,51.6409286 L17.3537143,38.8262857 L3.53207143,47.806 L3.53207143,51.6598571 Z M3.53207143,26.2425714 L17.3537143,17.0508571 L17.3537143,9.87692857 L3.53207143,18.8490714 L3.53207143,26.2425714 Z M3.53207143,16.6987857 L17.3537143,7.50707143 L17.3537143,0.325571429 L3.53207143,9.30528571 L3.53207143,16.6987857 Z" id="Shape"></path>
                    </g>
                    <g id="Shape_123_copy_33_1_" transform="translate(0.000000, 15.142857)">
                        <g id="Shape_123_copy_33">
                            <path d="M0,31.8151429 L9.20307143,24.5238571 L9.20307143,18.8339286 L0,25.9548571 L0,31.8151429 Z M0,24.2475 L9.20307143,16.96 L9.20307143,11.2738571 L0,18.3872143 L0,24.2475 Z M0,36.5586429 L9.20307143,36.5359286 L9.20307143,26.3788571 L0,33.496 L0,36.5586429 Z M0,16.3997143 L9.20307143,9.11221429 L9.20307143,3.41471429 L0,10.5394286 L0,16.3997143 Z" id="Shape"></path>
                        </g>
                    </g>
                </g>
            </g>
        </g>
    </g>
</svg>